# xmcd
#
# Track frame offsets: 
#        150
#        12260
#        25153
#        39503
#        51913
#        63618
#        77799
#        91798
#        102994
#        116008
#        128520
#        141121
#        155536
#        166500
#        180305
#        192385
#        205942
#        217945
#        231605
#        242797
#        256812
#        269433
#        280547
#        297511
#        311874
#
# Disc length: 4329 seconds
#
# Revision: 0
# Processed by: cddbd v1.5.2PL0 Copyright (c) Steve Scherf et al.
# Submitted via: ExactAudioCopy v1.0b3
#
DISCID=6310e719
DTITLE=Various Artist - Definitive Detroit Blues [CD1]
DYEAR=2013
DGENRE=Blues
TTITLE0=John Lee Hooker - I Got Eyes For You
TTITLE1=Calvin Frazier - Sweet Lucy (drinkin' Woman)
TTITLE2=Eddie 'guitar' Burns - Where Did You Stay Last Night?
TTITLE3=Doctor Ross - Thirty Two Twenty
TTITLE4=Baby Boy Warren - Forgive Me Darling
TTITLE5=Eddie 'guitar' Burns - Hello Miss Jessie
TTITLE6=Paul Williams - The Hucklebuck
TTITLE7=Eddie Kirkland - Mistreated Woman
TTITLE8=L.C. Green - Going Down The River
TTITLE9=Big Maceo - Worried Life Blues No. 2
TTITLE10=John Lee Hooker - It Hurts Me So
TTITLE11=Playboy Fuller - Sugar Cane Highway
TTITLE12=Robert Henry - Old Battle Axe
TTITLE13=Little Miss Sharecropper - Take Out Some Time
TTITLE14=Joe Weaver and His Blue Notes - J.B. Boogie
TTITLE15=Detroit Count - Hastings Street Opera (part 1)
TTITLE16=Sylvester Cotton - Ugly Woman Blues
TTITLE17=Andrew Dunham - Sweet Lucy
TTITLE18=L.C. Green - When The Sun Is Shining
TTITLE19=One String Sam - My Baby Ooo
TTITLE20=Baby Boy Warren - Sanafee
TTITLE21=John Lee Hooker - No More Doggin'
TTITLE22=Walter Mitchell - Pet Milk Blues
TTITLE23=Robert Richard - Root Hog
TTITLE24=Washboard Willie - Washboard Blues (part 1)
EXTD=
EXTT0=
EXTT1=
EXTT2=
EXTT3=
EXTT4=
EXTT5=
EXTT6=
EXTT7=
EXTT8=
EXTT9=
EXTT10=
EXTT11=
EXTT12=
EXTT13=
EXTT14=
EXTT15=
EXTT16=
EXTT17=
EXTT18=
EXTT19=
EXTT20=
EXTT21=
EXTT22=
EXTT23=
EXTT24=
PLAYORDER=
